<svg version="1.1" viewBox="0.0 0.0 960.0 720.0" fill="none" stroke="none" stroke-linecap="square" stroke-miterlimit="10" xmlns:xlink="http://www.w3.org/1999/xlink" xmlns="http://www.w3.org/2000/svg"><clipPath id="p.0"><path d="m0 0l960.0 0l0 720.0l-960.0 0l0 -720.0z" clip-rule="nonzero"/></clipPath><g clip-path="url(#p.0)"><path fill="#000000" fill-opacity="0.0" d="m0 0l960.0 0l0 720.0l-960.0 0z" fill-rule="evenodd"/><path fill="#0b090a" d="m312.6614 89.32395l0 0c0 -30.8068 24.973846 -55.780643 55.78064 -55.780643l223.11588 0l0 0c14.793945 0 28.981995 5.876873 39.44287 16.337772c10.4609375 10.460899 16.337769 24.648926 16.337769 39.44287l0 541.35205c0 30.806824 -24.973816 55.78064 -55.78064 55.78064l-223.11588 0c-30.806793 0 -55.78064 -24.973816 -55.78064 -55.78064z" fill-rule="evenodd"/><path stroke="#161a1d" stroke-width="24.0" stroke-linejoin="round" stroke-linecap="butt" d="m312.6614 89.32395l0 0c0 -30.8068 24.973846 -55.780643 55.78064 -55.780643l223.11588 0l0 0c14.793945 0 28.981995 5.876873 39.44287 16.337772c10.4609375 10.460899 16.337769 24.648926 16.337769 39.44287l0 541.35205c0 30.806824 -24.973816 55.78064 -55.78064 55.78064l-223.11588 0c-30.806793 0 -55.78064 -24.973816 -55.78064 -55.78064z" fill-rule="evenodd"/><path fill="#161a1d" d="m312.6614 89.32395l0 0c0 -30.8068 24.973846 -55.780643 55.78064 -55.780643l223.11588 0l0 0c14.793945 0 28.981995 5.876873 39.44287 16.337772c10.4609375 10.460899 16.337769 24.648926 16.337769 39.44287l0 541.35205c0 30.806824 -24.973816 55.78064 -55.78064 55.78064l-223.11588 0c-30.806793 0 -55.78064 -24.973816 -55.78064 -55.78064z" fill-rule="evenodd"/><path stroke="#a4161a" stroke-width="8.0" stroke-linejoin="round" stroke-linecap="butt" d="m312.6614 89.32395l0 0c0 -30.8068 24.973846 -55.780643 55.78064 -55.780643l223.11588 0l0 0c14.793945 0 28.981995 5.876873 39.44287 16.337772c10.4609375 10.460899 16.337769 24.648926 16.337769 39.44287l0 541.35205c0 30.806824 -24.973816 55.78064 -55.78064 55.78064l-223.11588 0c-30.806793 0 -55.78064 -24.973816 -55.78064 -55.78064z" fill-rule="evenodd"/><path fill="#a4161a" d="m454.92947 365.35187q-0.53125 4.671875 -3.4375 7.203125q-2.890625 2.53125 -7.6875 2.53125q-5.21875 0 -8.359375 -3.734375q-3.125 -3.734375 -3.125 -9.984375l0 -2.828125q0 -4.09375 1.453125 -7.203125q1.46875 -3.109375 4.140625 -4.765625q2.6875 -1.671875 6.234375 -1.671875q4.671875 0 7.5 2.609375q2.828125 2.609375 3.28125 7.234375l-3.890625 0q-0.5 -3.515625 -2.1875 -5.078125q-1.6875 -1.578125 -4.703125 -1.578125q-3.71875 0 -5.828125 2.75q-2.109375 2.734375 -2.109375 7.796875l0 2.84375q0 4.78125 2.0 7.609375q2.0 2.828125 5.59375 2.828125q3.21875 0 4.9375 -1.453125q1.734375 -1.46875 2.296875 -5.109375l3.890625 0zm8.759003 9.328125l-3.734375 0l0 -31.0l3.734375 0l0 31.0zm10.029327 0l-3.734375 0l0 -21.828125l3.734375 0l0 21.828125zm-4.03125 -27.625q0 -0.90625 0.546875 -1.53125q0.5625 -0.625 1.65625 -0.625q1.09375 0 1.65625 0.625q0.5625 0.625 0.5625 1.53125q0 0.90625 -0.5625 1.515625q-0.5625 0.609375 -1.65625 0.609375q-1.09375 0 -1.65625 -0.609375q-0.546875 -0.609375 -0.546875 -1.515625zm18.763733 24.984375q2.0 0 3.484375 -1.203125q1.5 -1.21875 1.671875 -3.03125l3.53125 0q-0.109375 1.875 -1.296875 3.578125q-1.1875 1.6875 -3.1875 2.703125q-1.984375 1.0 -4.203125 1.0q-4.453125 0 -7.09375 -2.96875q-2.625 -2.984375 -2.625 -8.15625l0 -0.625q0 -3.1875 1.171875 -5.671875q1.171875 -2.484375 3.359375 -3.84375q2.1875 -1.375 5.171875 -1.375q3.671875 0 6.09375 2.203125q2.4375 2.1875 2.609375 5.703125l-3.53125 0q-0.171875 -2.125 -1.609375 -3.484375q-1.4375 -1.359375 -3.5625 -1.359375q-2.84375 0 -4.40625 2.046875q-1.5625 2.046875 -1.5625 5.921875l0 0.703125q0 3.78125 1.546875 5.828125q1.5625 2.03125 4.4375 2.03125zm18.97644 -7.46875l-2.34375 2.4375l0 7.671875l-3.734375 0l0 -31.0l3.734375 0l0 18.75l2.0 -2.40625l6.7968445 -7.171875l4.546875 0l-8.4999695 9.109375l9.4843445 12.71875l-4.375 0l-7.6093445 -10.109375zm19.024689 1.8125l-3.375 0l-0.25 -21.078125l3.90625 0l-0.28125 21.078125zm-3.765625 6.421875q0 -0.90625 0.546875 -1.515625q0.5625 -0.625 1.640625 -0.625q1.09375 0 1.65625 0.625q0.5625 0.609375 0.5625 1.515625q0 0.90625 -0.5625 1.5q-0.5625 0.59375 -1.65625 0.59375q-1.078125 0 -1.640625 -0.59375q-0.546875 -0.59375 -0.546875 -1.5z" fill-rule="nonzero"/></g></svg>